<svg width="24" height="24" viewBox="0 0 24 24" fill="none" xmlns="http://www.w3.org/2000/svg">
<path d="M24 12C24 18.6274 18.6274 24 12 24C5.37258 24 0 18.6274 0 12C0 5.37258 5.37258 0 12 0C18.6274 0 24 5.37258 24 12Z" fill="#2C374B"/>
<path d="M13.9537 11.2767L15.2242 9.12093L18.6487 14.4547L18.6503 15.4783L18.6391 8.43458C18.631 8.2624 18.5396 8.10489 18.3937 8.01201L12.2284 4.46561C12.0842 4.39474 11.9013 4.39549 11.7573 4.46781C11.7379 4.47758 11.7196 4.48815 11.7021 4.4997L11.6807 4.51323L5.6962 7.98119L5.67296 7.99171C5.64311 8.00546 5.61293 8.0229 5.58459 8.0432C5.47114 8.12459 5.39577 8.2449 5.37139 8.37987C5.36774 8.40033 5.36506 8.42116 5.36377 8.44215L5.37316 14.1821L8.56292 9.23813C8.9645 8.58255 9.8395 8.37139 10.6517 8.38288L11.6051 8.40806L5.98805 17.4162L6.65018 17.7974L12.3345 8.41719L14.847 8.40806L9.17732 18.025L11.8223 19.5463C11.9417 19.5948 12.0825 19.5972 12.2029 19.5538L18.4549 15.9307L17.2596 16.6233L13.9537 11.2767ZM14.4385 18.2582L12.0521 14.5128L13.5088 12.0409L16.6428 16.9807L14.4385 18.2582Z" fill="#2D374B"/>
<path d="M12.0521 14.5128L14.4385 18.2582L16.6429 16.9807L13.5088 12.0409L12.0521 14.5128Z" fill="#28A0F0"/>
<path d="M18.6503 15.4783L18.6487 14.4547L15.2242 9.12093L13.9537 11.2767L17.2596 16.6233L18.4549 15.9307C18.5721 15.8355 18.6431 15.6957 18.6505 15.5449L18.6503 15.4783Z" fill="#28A0F0"/>
<path d="M4.30005 16.4436L5.98805 17.4162L11.6051 8.40806L10.6517 8.38288C9.8395 8.37139 8.9645 8.58255 8.56292 9.23813L5.37316 14.1821L4.3 15.8309V16.4436H4.30005Z" fill="white"/>
<path d="M14.847 8.40806L12.3345 8.41719L6.65018 17.7974L8.63701 18.9414L9.17732 18.025L14.847 8.40806Z" fill="white"/>
<path d="M19.7091 8.39512C19.6881 7.86968 19.4036 7.38864 18.9579 7.1086L12.7118 3.51662C12.271 3.29462 11.7202 3.29435 11.2787 3.51646C11.2265 3.54277 5.20442 7.03537 5.20442 7.03537C5.1211 7.07531 5.04084 7.12294 4.9653 7.17695C4.56747 7.46208 4.32496 7.90511 4.30005 8.3919V15.8309L5.37316 14.1821L5.36377 8.44221C5.36506 8.42121 5.36769 8.4006 5.37139 8.3802C5.39561 8.24512 5.47104 8.12459 5.58459 8.0432C5.61293 8.0229 11.7379 4.47758 11.7573 4.46781C11.9013 4.39549 12.0842 4.39474 12.2284 4.46561L18.3937 8.01201C18.5396 8.10489 18.631 8.26246 18.6391 8.43464V15.545C18.6317 15.6958 18.5721 15.8355 18.4548 15.9307L12.2028 19.5539C12.0824 19.5973 11.9416 19.5949 11.8222 19.5463L9.17727 18.025L8.63695 18.9414L11.0139 20.3099C11.0925 20.3546 11.1626 20.3942 11.22 20.4266C11.309 20.4765 11.3697 20.5098 11.3911 20.5202C11.56 20.6022 11.8031 20.65 12.0221 20.65C12.223 20.65 12.4188 20.6131 12.6041 20.5405L19.0974 16.7801C19.4701 16.4913 19.6893 16.0559 19.7091 15.5841V8.39512Z" fill="#96BEDC"/>
</svg>
