<svg width="24" height="24" viewBox="0 0 24 24" fill="none" xmlns="http://www.w3.org/2000/svg">
<g clip-path="url(#clip0_1_1755)">
<mask id="mask0_1_1755" style="mask-type:luminance" maskUnits="userSpaceOnUse" x="0" y="0" width="24" height="24">
<path d="M12 24C5.37216 24 0 18.6278 0 12C0 5.37216 5.37216 0 12 0C18.6278 0 24 5.37216 24 12C24 18.6278 18.6278 24 12 24Z" fill="white"/>
</mask>
<g mask="url(#mask0_1_1755)">
<path fill-rule="evenodd" clip-rule="evenodd" d="M12 12L-4.97278 11.8954L-4.95742 11.2714L12 12Z" fill="#FEFEFF"/>
<path fill-rule="evenodd" clip-rule="evenodd" d="M12 12L-4.96033 11.375L-4.93441 10.8547L12 12Z" fill="#FDFEFF"/>
<path fill-rule="evenodd" clip-rule="evenodd" d="M12 12L-4.94012 10.9594L-4.90172 10.44L12 12Z" fill="#FCFDFF"/>
<path fill-rule="evenodd" clip-rule="evenodd" d="M12 12L-4.90942 10.5437L-4.85854 10.0253L12 12Z" fill="#FBFCFF"/>
<path fill-rule="evenodd" clip-rule="evenodd" d="M12 12L-4.86816 10.1289L-4.8048 9.61246L12 12Z" fill="#FAFCFF"/>
<path fill-rule="evenodd" clip-rule="evenodd" d="M12 12L-4.81726 9.71614L-4.74142 9.20062L12 12Z" fill="#F9FBFF"/>
<path fill-rule="evenodd" clip-rule="evenodd" d="M12 12L-4.7558 9.30335L-4.66748 8.79071L12 12Z" fill="#F8FAFF"/>
<path fill-rule="evenodd" clip-rule="evenodd" d="M12 12L-4.68475 8.89344L-4.58395 8.38272L12 12Z" fill="#F7FAFF"/>
<path fill-rule="evenodd" clip-rule="evenodd" d="M12 12L-4.60413 8.48542L-4.48989 7.97662L12 12Z" fill="#F6F9FF"/>
<path fill-rule="evenodd" clip-rule="evenodd" d="M12 12L-4.51294 8.07839L-4.38622 7.57343L12 12Z" fill="#F5F8FF"/>
<path fill-rule="evenodd" clip-rule="evenodd" d="M12 12L-4.41119 7.67423L-4.27295 7.17215L12 12Z" fill="#F4F8FF"/>
<path fill-rule="evenodd" clip-rule="evenodd" d="M12 12L-4.30078 7.27296L-4.1491 6.77472L12 12Z" fill="#F3F7FF"/>
<path fill-rule="evenodd" clip-rule="evenodd" d="M12 12L-4.17981 6.87456L-4.01565 6.38016L12 12Z" fill="#F2F6FF"/>
<path fill-rule="evenodd" clip-rule="evenodd" d="M12 12L-4.04926 6.47902L-3.87358 5.98846L12 12Z" fill="#F1F6FF"/>
<path fill-rule="evenodd" clip-rule="evenodd" d="M12 12L-3.90814 6.08638L-3.72094 5.60062L12 12Z" fill="#F0F5FF"/>
<path fill-rule="evenodd" clip-rule="evenodd" d="M12 12L-3.75836 5.6976L-3.55964 5.21664L12 12Z" fill="#EFF4FF"/>
<path fill-rule="evenodd" clip-rule="evenodd" d="M12 12L-3.599 5.31263L-3.3878 4.83743L12 12Z" fill="#EEF3FF"/>
<path fill-rule="evenodd" clip-rule="evenodd" d="M12 12L-3.43005 4.93247L-3.20733 4.46207L12 12Z" fill="#EDF3FF"/>
<path fill-rule="evenodd" clip-rule="evenodd" d="M12 12L-3.25244 4.55615L-3.0182 4.09055L12 12Z" fill="#ECF2FF"/>
<path fill-rule="evenodd" clip-rule="evenodd" d="M12 12L-3.06525 4.18367L-2.81949 3.72479L12 12Z" fill="#EBF1FF"/>
<path fill-rule="evenodd" clip-rule="evenodd" d="M12 12L-2.86847 3.81696L-2.61215 3.36288L12 12Z" fill="#EAF1FF"/>
<path fill-rule="evenodd" clip-rule="evenodd" d="M12 12L-2.66302 3.45406L-2.39518 3.00766L12 12Z" fill="#E9F0FF"/>
<path fill-rule="evenodd" clip-rule="evenodd" d="M12 12L-2.44891 3.09695L-2.17051 2.65631L12 12Z" fill="#E8EFFF"/>
<path fill-rule="evenodd" clip-rule="evenodd" d="M12 12L-2.2262 2.74464L-1.93628 2.31168L12 12Z" fill="#E7EFFF"/>
<path fill-rule="evenodd" clip-rule="evenodd" d="M12 12L-1.99487 2.39806L-1.69535 1.97278L12 12Z" fill="#E6EEFF"/>
<path fill-rule="evenodd" clip-rule="evenodd" d="M12 12L-1.75488 2.05824L-1.4448 1.63968L12 12Z" fill="#E5EDFF"/>
<path fill-rule="evenodd" clip-rule="evenodd" d="M12 12L-1.5072 1.7232L-1.18656 1.31232L12 12Z" fill="#E4EDFF"/>
<path fill-rule="evenodd" clip-rule="evenodd" d="M12 12L-1.25085 1.39489L-0.920614 0.992645L12 12Z" fill="#E3ECFF"/>
<path fill-rule="evenodd" clip-rule="evenodd" d="M12 12L-0.985901 1.07327L-0.646061 0.678711L12 12Z" fill="#E2EBFF"/>
<path fill-rule="evenodd" clip-rule="evenodd" d="M12 12L-0.714233 0.757441L-0.364793 0.371521L12 12Z" fill="#E1EBFF"/>
<path fill-rule="evenodd" clip-rule="evenodd" d="M12 12L-0.434875 0.449271L-0.0758355 0.071991L12 12Z" fill="#E0EAFF"/>
<path fill-rule="evenodd" clip-rule="evenodd" d="M12 12L-0.147827 0.147845L0.220813 -0.220795L12 12Z" fill="#DFE9FF"/>
<path fill-rule="evenodd" clip-rule="evenodd" d="M12 12L0.147888 -0.14784L0.524208 -0.50592L12 12Z" fill="#DEE9FF"/>
<path fill-rule="evenodd" clip-rule="evenodd" d="M12 12L0.44928 -0.434892L0.8352 -0.784332L12 12Z" fill="#DDE8FF"/>
<path fill-rule="evenodd" clip-rule="evenodd" d="M12 12L0.757446 -0.714237L1.15201 -1.05408L12 12Z" fill="#DCE7FF"/>
<path fill-rule="evenodd" clip-rule="evenodd" d="M12 12L1.0733 -0.985922L1.47554 -1.31616L12 12Z" fill="#DBE7FF"/>
<path fill-rule="evenodd" clip-rule="evenodd" d="M12 12L1.3949 -1.25088L1.80578 -1.57056L12 12Z" fill="#DAE6FF"/>
<path fill-rule="evenodd" clip-rule="evenodd" d="M12 12L1.72321 -1.50721L2.14177 -1.81729L12 12Z" fill="#D9E5FF"/>
<path fill-rule="evenodd" clip-rule="evenodd" d="M12 12L2.05829 -1.75489L2.48357 -2.05441L12 12Z" fill="#D8E5FF"/>
<path fill-rule="evenodd" clip-rule="evenodd" d="M12.0001 12L2.39813 -1.99488L2.83109 -2.28384L12.0001 12Z" fill="#D7E4FF"/>
<path fill-rule="evenodd" clip-rule="evenodd" d="M12 12L2.74469 -2.22624L3.18533 -2.50464L12 12Z" fill="#D6E3FF"/>
<path fill-rule="evenodd" clip-rule="evenodd" d="M12 12L3.09698 -2.44896L3.54338 -2.7168L12 12Z" fill="#D5E3FF"/>
<path fill-rule="evenodd" clip-rule="evenodd" d="M12 12L3.4541 -2.66305L3.90722 -2.91937L12 12Z" fill="#D4E2FF"/>
<path fill-rule="evenodd" clip-rule="evenodd" d="M12 12L3.81696 -2.8685L4.27584 -3.11426L12 12Z" fill="#D3E1FF"/>
<path fill-rule="evenodd" clip-rule="evenodd" d="M12 12L4.18372 -3.06527L4.64932 -3.29855L12 12Z" fill="#D2E0FF"/>
<path fill-rule="evenodd" clip-rule="evenodd" d="M12 12L4.55615 -3.25248L5.02655 -3.47424L12 12Z" fill="#D1E0FF"/>
<path fill-rule="evenodd" clip-rule="evenodd" d="M12 12L4.9325 -3.4301L5.40866 -3.6413L12 12Z" fill="#D0DFFF"/>
<path fill-rule="evenodd" clip-rule="evenodd" d="M12 12L5.31268 -3.59906L5.7946 -3.79874L12 12Z" fill="#CFDEFF"/>
<path fill-rule="evenodd" clip-rule="evenodd" d="M12 12L5.69763 -3.75842L6.18435 -3.94562L12 12Z" fill="#CEDEFF"/>
<path fill-rule="evenodd" clip-rule="evenodd" d="M12 12L6.08643 -3.90818L6.57699 -4.08386L12 12Z" fill="#CDDDFF"/>
<path fill-rule="evenodd" clip-rule="evenodd" d="M12 12L6.47906 -4.04928L6.97346 -4.21152L12 12Z" fill="#CCDCFF"/>
<path fill-rule="evenodd" clip-rule="evenodd" d="M12 12L6.87457 -4.17985L7.37281 -4.33057L12 12Z" fill="#CBDCFF"/>
<path fill-rule="evenodd" clip-rule="evenodd" d="M12.0001 12L7.27301 -4.30082L7.77509 -4.43906L12.0001 12Z" fill="#CADBFF"/>
<path fill-rule="evenodd" clip-rule="evenodd" d="M12 12L7.67426 -4.41121L8.17922 -4.53793L12 12Z" fill="#C9DAFF"/>
<path fill-rule="evenodd" clip-rule="evenodd" d="M12 12L8.07843 -4.51297L8.58627 -4.62625L12 12Z" fill="#C8DAFF"/>
<path fill-rule="evenodd" clip-rule="evenodd" d="M12 12L8.48547 -4.60416L8.99523 -4.70496L12 12Z" fill="#C7D9FF"/>
<path fill-rule="evenodd" clip-rule="evenodd" d="M12 12L8.89343 -4.6848L9.40607 -4.77408L12 12Z" fill="#C6D8FF"/>
<path fill-rule="evenodd" clip-rule="evenodd" d="M12 12L9.30341 -4.75584L9.81893 -4.83264L12 12Z" fill="#C5D8FF"/>
<path fill-rule="evenodd" clip-rule="evenodd" d="M12 12L9.71619 -4.81729L10.2327 -4.88065L12 12Z" fill="#C4D7FF"/>
<path fill-rule="evenodd" clip-rule="evenodd" d="M12 12L10.129 -4.86816L10.6474 -4.91904L12 12Z" fill="#C3D6FF"/>
<path fill-rule="evenodd" clip-rule="evenodd" d="M12 12L10.5437 -4.90945L11.0631 -4.94785L12 12Z" fill="#C2D6FF"/>
<path fill-rule="evenodd" clip-rule="evenodd" d="M12.0001 12L10.9594 -4.94016L11.4797 -4.96512L12.0001 12Z" fill="#C1D5FF"/>
<path fill-rule="evenodd" clip-rule="evenodd" d="M12 12L11.3751 -4.96033L11.8954 -4.97281L12 12Z" fill="#C0D4FF"/>
<path fill-rule="evenodd" clip-rule="evenodd" d="M12 12L11.7917 -4.97089H12.312L12 12Z" fill="#BFD4FF"/>
<path fill-rule="evenodd" clip-rule="evenodd" d="M12 12L12.2083 -4.97089L12.7286 -4.95745L12 12Z" fill="#BED3FF"/>
<path fill-rule="evenodd" clip-rule="evenodd" d="M12 12L12.625 -4.96033L13.1443 -4.93441L12 12Z" fill="#BDD2FF"/>
<path fill-rule="evenodd" clip-rule="evenodd" d="M12 12L13.0406 -4.94016L13.56 -4.90176L12 12Z" fill="#BCD2FF"/>
<path fill-rule="evenodd" clip-rule="evenodd" d="M12 12L13.4563 -4.90945L13.9747 -4.85857L12 12Z" fill="#BBD1FF"/>
<path fill-rule="evenodd" clip-rule="evenodd" d="M12 12L13.8701 -4.86816L14.3875 -4.8048L12 12Z" fill="#BAD0FF"/>
<path fill-rule="evenodd" clip-rule="evenodd" d="M12 12L14.2838 -4.81729L14.7994 -4.74145L12 12Z" fill="#B9D0FF"/>
<path fill-rule="evenodd" clip-rule="evenodd" d="M12 12L14.6957 -4.75586L15.2093 -4.66754L12 12Z" fill="#B8CFFF"/>
<path fill-rule="evenodd" clip-rule="evenodd" d="M12 12L15.1066 -4.68481L15.6173 -4.58401L12 12Z" fill="#B7CEFF"/>
<path fill-rule="evenodd" clip-rule="evenodd" d="M12 12L15.5146 -4.60416L16.0234 -4.48992L12 12Z" fill="#B6CDFF"/>
<path fill-rule="evenodd" clip-rule="evenodd" d="M12 12L15.9216 -4.51297L16.4266 -4.38625L12 12Z" fill="#B5CDFF"/>
<path fill-rule="evenodd" clip-rule="evenodd" d="M12 12L16.3258 -4.41119L16.8269 -4.27295L12 12Z" fill="#B4CCFF"/>
<path fill-rule="evenodd" clip-rule="evenodd" d="M12 12L16.727 -4.30081L17.2253 -4.14913L12 12Z" fill="#B3CBFF"/>
<path fill-rule="evenodd" clip-rule="evenodd" d="M12 12L17.1254 -4.17984L17.6198 -4.01568L12 12Z" fill="#B2CBFF"/>
<path fill-rule="evenodd" clip-rule="evenodd" d="M12 12L17.521 -4.04929L18.0115 -3.87361L12 12Z" fill="#B1CAFF"/>
<path fill-rule="evenodd" clip-rule="evenodd" d="M12 12L17.9136 -3.90817L18.3994 -3.72097L12 12Z" fill="#B0C9FF"/>
<path fill-rule="evenodd" clip-rule="evenodd" d="M12 12L18.3014 -3.75842L18.7834 -3.5597L12 12Z" fill="#AFC9FF"/>
<path fill-rule="evenodd" clip-rule="evenodd" d="M12 12L18.6864 -3.59906L19.1626 -3.38786L12 12Z" fill="#AEC8FF"/>
<path fill-rule="evenodd" clip-rule="evenodd" d="M12 12L19.0675 -3.43008L19.5379 -3.20736L12 12Z" fill="#ADC7FF"/>
<path fill-rule="evenodd" clip-rule="evenodd" d="M12 12L19.4438 -3.2525L19.9094 -3.01826L12 12Z" fill="#ACC7FF"/>
<path fill-rule="evenodd" clip-rule="evenodd" d="M12 12L19.8163 -3.06528L20.2752 -2.81952L12 12Z" fill="#ABC6FF"/>
<path fill-rule="evenodd" clip-rule="evenodd" d="M12 12L20.183 -2.8685L20.6371 -2.61218L12 12Z" fill="#AAC5FF"/>
<path fill-rule="evenodd" clip-rule="evenodd" d="M12 12L20.5459 -2.66306L20.9923 -2.39522L12 12Z" fill="#A9C5FF"/>
<path fill-rule="evenodd" clip-rule="evenodd" d="M12 12L20.903 -2.44897L21.3427 -2.17057L12 12Z" fill="#A8C4FF"/>
<path fill-rule="evenodd" clip-rule="evenodd" d="M12 12L21.2554 -2.22626L21.6883 -1.93634L12 12Z" fill="#A7C3FF"/>
<path fill-rule="evenodd" clip-rule="evenodd" d="M12 12L21.6019 -1.9949L22.0272 -1.69538L12 12Z" fill="#A6C3FF"/>
<path fill-rule="evenodd" clip-rule="evenodd" d="M12 12L21.9418 -1.75488L22.3603 -1.4448L12 12Z" fill="#A5C2FF"/>
<path fill-rule="evenodd" clip-rule="evenodd" d="M12 12L22.2768 -1.5072L22.6867 -1.18656L12 12Z" fill="#A4C1FF"/>
<path fill-rule="evenodd" clip-rule="evenodd" d="M12 12L22.6051 -1.25089L23.0074 -0.920645L12 12Z" fill="#A3C1FF"/>
<path fill-rule="evenodd" clip-rule="evenodd" d="M12 12L22.9267 -0.985931L23.3213 -0.646091L12 12Z" fill="#A2C0FF"/>
<path fill-rule="evenodd" clip-rule="evenodd" d="M12 12L23.2426 -0.714233L23.6285 -0.364793L12 12Z" fill="#A1BFFF"/>
<path fill-rule="evenodd" clip-rule="evenodd" d="M12 12L23.5507 -0.434875L23.928 -0.0758355L12 12Z" fill="#A0BFFF"/>
<path fill-rule="evenodd" clip-rule="evenodd" d="M12 12L23.8522 -0.147858L24.2208 0.220782L12 12Z" fill="#9FBEFF"/>
<path fill-rule="evenodd" clip-rule="evenodd" d="M12 12L24.1469 0.147827L24.5059 0.524147L12 12Z" fill="#9EBDFF"/>
<path fill-rule="evenodd" clip-rule="evenodd" d="M12 12L24.4349 0.44928L24.7843 0.8352L12 12Z" fill="#9DBDFF"/>
<path fill-rule="evenodd" clip-rule="evenodd" d="M12 12L24.7142 0.757446L25.0541 1.15201L12 12Z" fill="#9CBCFF"/>
<path fill-rule="evenodd" clip-rule="evenodd" d="M12 12L24.9859 1.07327L25.3162 1.47551L12 12Z" fill="#9BBBFF"/>
<path fill-rule="evenodd" clip-rule="evenodd" d="M12 12L25.2509 1.39487L25.5706 1.80575L12 12Z" fill="#9ABAFF"/>
<path fill-rule="evenodd" clip-rule="evenodd" d="M12 12L25.5072 1.72321L25.8173 2.14177L12 12Z" fill="#99BAFF"/>
<path fill-rule="evenodd" clip-rule="evenodd" d="M12 12L25.7549 2.05823L26.0544 2.48351L12 12Z" fill="#98B9FF"/>
<path fill-rule="evenodd" clip-rule="evenodd" d="M12 12L25.9949 2.39807L26.2838 2.83103L12 12Z" fill="#97B8FF"/>
<path fill-rule="evenodd" clip-rule="evenodd" d="M12 12L26.2262 2.74463L26.5046 3.18527L12 12Z" fill="#96B8FF"/>
<path fill-rule="evenodd" clip-rule="evenodd" d="M12 12L26.449 3.09695L26.7168 3.54335L12 12Z" fill="#95B7FF"/>
<path fill-rule="evenodd" clip-rule="evenodd" d="M12 12L26.663 3.45407L26.9194 3.90719L12 12Z" fill="#94B6FF"/>
<path fill-rule="evenodd" clip-rule="evenodd" d="M12 12L26.8685 3.81696L27.1133 4.27584L12 12Z" fill="#93B6FF"/>
<path fill-rule="evenodd" clip-rule="evenodd" d="M12 12L27.0643 4.18369L27.2986 4.64929L12 12Z" fill="#92B5FF"/>
<path fill-rule="evenodd" clip-rule="evenodd" d="M12 12L27.2525 4.55615L27.4742 5.02655L12 12Z" fill="#91B4FF"/>
<path fill-rule="evenodd" clip-rule="evenodd" d="M12 12L27.4301 4.93246L27.6413 5.40862L12 12Z" fill="#90B4FF"/>
<path fill-rule="evenodd" clip-rule="evenodd" d="M12 12L27.599 5.31262L27.7978 5.79454L12 12Z" fill="#8FB3FF"/>
<path fill-rule="evenodd" clip-rule="evenodd" d="M12 12L27.7584 5.6976L27.9456 6.18432L12 12Z" fill="#8EB2FF"/>
<path fill-rule="evenodd" clip-rule="evenodd" d="M12 12L27.9082 6.0864L28.0838 6.57696L12 12Z" fill="#8DB2FF"/>
<path fill-rule="evenodd" clip-rule="evenodd" d="M12 12L28.0483 6.47903L28.2115 6.97343L12 12Z" fill="#8CB1FF"/>
<path fill-rule="evenodd" clip-rule="evenodd" d="M12 12L28.1789 6.87454L28.3306 7.37278L12 12Z" fill="#8BB0FF"/>
<path fill-rule="evenodd" clip-rule="evenodd" d="M12 12L28.2998 7.27295L28.439 7.77503L12 12Z" fill="#8AB0FF"/>
<path fill-rule="evenodd" clip-rule="evenodd" d="M12 12L28.4112 7.67422L28.5379 8.17918L12 12Z" fill="#89AFFF"/>
<path fill-rule="evenodd" clip-rule="evenodd" d="M12 12L28.513 8.0784L28.6262 8.58624L12 12Z" fill="#88AEFF"/>
<path fill-rule="evenodd" clip-rule="evenodd" d="M12 12L28.6032 8.48544L28.705 8.9952L12 12Z" fill="#87AEFF"/>
<path fill-rule="evenodd" clip-rule="evenodd" d="M12 12L28.6848 8.89343L28.7741 9.40607L12 12Z" fill="#86ADFF"/>
<path fill-rule="evenodd" clip-rule="evenodd" d="M12 12L28.7558 9.30334L28.8326 9.81886L12 12Z" fill="#85ACFF"/>
<path fill-rule="evenodd" clip-rule="evenodd" d="M12 12L28.8173 9.71616L28.8806 10.2326L12 12Z" fill="#84ACFF"/>
<path fill-rule="evenodd" clip-rule="evenodd" d="M12 12L28.8682 10.1289L28.919 10.6473L12 12Z" fill="#83ABFF"/>
<path fill-rule="evenodd" clip-rule="evenodd" d="M12 12L28.9094 10.5437L28.9478 11.063L12 12Z" fill="#82AAFF"/>
<path fill-rule="evenodd" clip-rule="evenodd" d="M12 12L28.9402 10.9594L28.9651 11.4797L12 12Z" fill="#81AAFF"/>
<path fill-rule="evenodd" clip-rule="evenodd" d="M12 12L28.9603 11.375L28.9728 11.8954L12 12Z" fill="#80A9FF"/>
<path fill-rule="evenodd" clip-rule="evenodd" d="M12 12L28.9699 11.7917V12.312L12 12Z" fill="#7FA8FF"/>
<path fill-rule="evenodd" clip-rule="evenodd" d="M12 12L28.9699 12.2083L28.9574 12.7286L12 12Z" fill="#7EA7FF"/>
<path fill-rule="evenodd" clip-rule="evenodd" d="M12 12L28.9603 12.625L28.9344 13.1443L12 12Z" fill="#7DA7FF"/>
<path fill-rule="evenodd" clip-rule="evenodd" d="M12 12L28.9402 13.0406L28.9018 13.56L12 12Z" fill="#7CA6FF"/>
<path fill-rule="evenodd" clip-rule="evenodd" d="M12 12L28.9094 13.4563L28.8586 13.9747L12 12Z" fill="#7BA5FF"/>
<path fill-rule="evenodd" clip-rule="evenodd" d="M12 12L28.8682 13.8701L28.8048 14.3875L12 12Z" fill="#7AA5FF"/>
<path fill-rule="evenodd" clip-rule="evenodd" d="M12 12L28.8173 14.2838L28.7405 14.7994L12 12Z" fill="#79A4FF"/>
<path fill-rule="evenodd" clip-rule="evenodd" d="M12 12L28.7558 14.6957L28.6675 15.2093L12 12Z" fill="#78A3FF"/>
<path fill-rule="evenodd" clip-rule="evenodd" d="M12 12L28.6848 15.1066L28.583 15.6173L12 12Z" fill="#77A3FF"/>
<path fill-rule="evenodd" clip-rule="evenodd" d="M12 12L28.6032 15.5146L28.4899 16.0234L12 12Z" fill="#76A2FF"/>
<path fill-rule="evenodd" clip-rule="evenodd" d="M12 12L28.513 15.9216L28.3862 16.4266L12 12Z" fill="#75A1FF"/>
<path fill-rule="evenodd" clip-rule="evenodd" d="M12 12L28.4112 16.3258L28.273 16.8269L12 12Z" fill="#74A1FF"/>
<path fill-rule="evenodd" clip-rule="evenodd" d="M12 12L28.2998 16.727L28.1491 17.2253L12 12Z" fill="#73A0FF"/>
<path fill-rule="evenodd" clip-rule="evenodd" d="M12 12L28.1789 17.1254L28.0157 17.6198L12 12Z" fill="#729FFF"/>
<path fill-rule="evenodd" clip-rule="evenodd" d="M12 12L28.0483 17.521L27.8736 18.0115L12 12Z" fill="#719FFF"/>
<path fill-rule="evenodd" clip-rule="evenodd" d="M12 12L27.9082 17.9136L27.721 18.3994L12 12Z" fill="#709EFF"/>
<path fill-rule="evenodd" clip-rule="evenodd" d="M12 12L27.7584 18.3014L27.5587 18.7834L12 12Z" fill="#6F9DFF"/>
<path fill-rule="evenodd" clip-rule="evenodd" d="M12 12L27.599 18.6864L27.3878 19.1626L12 12Z" fill="#6E9DFF"/>
<path fill-rule="evenodd" clip-rule="evenodd" d="M12 12L27.4301 19.0675L27.2074 19.5379L12 12Z" fill="#6D9CFF"/>
<path fill-rule="evenodd" clip-rule="evenodd" d="M12 12L27.2525 19.4438L27.0182 19.9094L12 12Z" fill="#6C9BFF"/>
<path fill-rule="evenodd" clip-rule="evenodd" d="M12 12L27.0643 19.8163L26.8195 20.2752L12 12Z" fill="#6B9BFF"/>
<path fill-rule="evenodd" clip-rule="evenodd" d="M12 12L26.8685 20.183L26.6122 20.6371L12 12Z" fill="#6A9AFF"/>
<path fill-rule="evenodd" clip-rule="evenodd" d="M12 12L26.663 20.5459L26.3952 20.9923L12 12Z" fill="#6999FF"/>
<path fill-rule="evenodd" clip-rule="evenodd" d="M12 12L26.449 20.903L26.1706 21.3427L12 12Z" fill="#6899FF"/>
<path fill-rule="evenodd" clip-rule="evenodd" d="M12 12L26.2262 21.2554L25.9363 21.6883L12 12Z" fill="#6798FF"/>
<path fill-rule="evenodd" clip-rule="evenodd" d="M12 12L25.9949 21.6019L25.6954 22.0272L12 12Z" fill="#6697FF"/>
<path fill-rule="evenodd" clip-rule="evenodd" d="M12 12L25.7549 21.9418L25.4448 22.3603L12 12Z" fill="#6597FF"/>
<path fill-rule="evenodd" clip-rule="evenodd" d="M12 12L25.5072 22.2768L25.1866 22.6867L12 12Z" fill="#6496FF"/>
<path fill-rule="evenodd" clip-rule="evenodd" d="M12 12L25.2509 22.6051L24.9206 23.0074L12 12Z" fill="#6395FF"/>
<path fill-rule="evenodd" clip-rule="evenodd" d="M12 12L24.9859 22.9267L24.6461 23.3213L12 12Z" fill="#6294FF"/>
<path fill-rule="evenodd" clip-rule="evenodd" d="M12 12L24.7142 23.2426L24.3648 23.6285L12 12Z" fill="#6194FF"/>
<path fill-rule="evenodd" clip-rule="evenodd" d="M12 12L24.4349 23.5507L24.0758 23.928L12 12Z" fill="#6093FF"/>
<path fill-rule="evenodd" clip-rule="evenodd" d="M12 12L24.1469 23.8522L23.7792 24.2208L12 12Z" fill="#5F92FF"/>
<path fill-rule="evenodd" clip-rule="evenodd" d="M12 12L23.8522 24.1469L23.4758 24.5059L12 12Z" fill="#5E92FF"/>
<path fill-rule="evenodd" clip-rule="evenodd" d="M12 12L23.5507 24.4349L23.1648 24.7843L12 12Z" fill="#5D91FF"/>
<path fill-rule="evenodd" clip-rule="evenodd" d="M12 12L23.2426 24.7142L22.848 25.0541L12 12Z" fill="#5C90FF"/>
<path fill-rule="evenodd" clip-rule="evenodd" d="M12 12L22.9267 24.9859L22.5245 25.3162L12 12Z" fill="#5B90FF"/>
<path fill-rule="evenodd" clip-rule="evenodd" d="M12 12L22.6051 25.2509L22.1942 25.5706L12 12Z" fill="#5A8FFF"/>
<path fill-rule="evenodd" clip-rule="evenodd" d="M12 12L22.2768 25.5072L21.8582 25.8173L12 12Z" fill="#598EFF"/>
<path fill-rule="evenodd" clip-rule="evenodd" d="M12 12L21.9418 25.7549L21.5165 26.0544L12 12Z" fill="#588EFF"/>
<path fill-rule="evenodd" clip-rule="evenodd" d="M12 12L21.6019 25.9949L21.168 26.2838L12 12Z" fill="#578DFF"/>
<path fill-rule="evenodd" clip-rule="evenodd" d="M12 12L21.2554 26.2262L20.8147 26.5046L12 12Z" fill="#568CFF"/>
<path fill-rule="evenodd" clip-rule="evenodd" d="M12 12L20.903 26.449L20.4566 26.7168L12 12Z" fill="#558CFF"/>
<path fill-rule="evenodd" clip-rule="evenodd" d="M12 12L20.5459 26.663L20.0928 26.9194L12 12Z" fill="#548BFF"/>
<path fill-rule="evenodd" clip-rule="evenodd" d="M12 12L20.183 26.8685L19.7242 27.1133L12 12Z" fill="#538AFF"/>
<path fill-rule="evenodd" clip-rule="evenodd" d="M12 12L19.8163 27.0643L19.3507 27.2986L12 12Z" fill="#528AFF"/>
<path fill-rule="evenodd" clip-rule="evenodd" d="M12 12L19.4438 27.2525L18.9734 27.4742L12 12Z" fill="#5189FF"/>
<path fill-rule="evenodd" clip-rule="evenodd" d="M12 12L19.0675 27.4301L18.5914 27.6413L12 12Z" fill="#5088FF"/>
<path fill-rule="evenodd" clip-rule="evenodd" d="M12 12L18.6864 27.599L18.2054 27.7978L12 12Z" fill="#4F88FF"/>
<path fill-rule="evenodd" clip-rule="evenodd" d="M12 12L18.3014 27.7584L17.8157 27.9456L12 12Z" fill="#4E87FF"/>
<path fill-rule="evenodd" clip-rule="evenodd" d="M12 12L17.9136 27.9082L17.423 28.0838L12 12Z" fill="#4D86FF"/>
<path fill-rule="evenodd" clip-rule="evenodd" d="M12 12L17.521 28.0483L17.0266 28.2115L12 12Z" fill="#4C86FF"/>
<path fill-rule="evenodd" clip-rule="evenodd" d="M12 12L17.1254 28.1789L16.6272 28.3306L12 12Z" fill="#4B85FF"/>
<path fill-rule="evenodd" clip-rule="evenodd" d="M12 12L16.727 28.2998L16.225 28.439L12 12Z" fill="#4A84FF"/>
<path fill-rule="evenodd" clip-rule="evenodd" d="M12 12L16.3258 28.4112L15.8198 28.5379L12 12Z" fill="#4984FF"/>
<path fill-rule="evenodd" clip-rule="evenodd" d="M12 12L15.9216 28.513L15.4138 28.6262L12 12Z" fill="#4883FF"/>
<path fill-rule="evenodd" clip-rule="evenodd" d="M12 12L15.5146 28.6032L15.0038 28.705L12 12Z" fill="#4782FF"/>
<path fill-rule="evenodd" clip-rule="evenodd" d="M12 12L15.1066 28.6848L14.5939 28.7741L12 12Z" fill="#4681FF"/>
<path fill-rule="evenodd" clip-rule="evenodd" d="M12 12L14.6957 28.7558L14.1811 28.8326L12 12Z" fill="#4581FF"/>
<path fill-rule="evenodd" clip-rule="evenodd" d="M12 12L14.2838 28.8173L13.7674 28.8806L12 12Z" fill="#4480FF"/>
<path fill-rule="evenodd" clip-rule="evenodd" d="M12 12L13.8701 28.8682L13.3526 28.919L12 12Z" fill="#437FFF"/>
<path fill-rule="evenodd" clip-rule="evenodd" d="M12 12L13.4563 28.9094L12.937 28.9478L12 12Z" fill="#427FFF"/>
<path fill-rule="evenodd" clip-rule="evenodd" d="M12 12L13.0406 28.9402L12.5203 28.9651L12 12Z" fill="#417EFF"/>
<path fill-rule="evenodd" clip-rule="evenodd" d="M12 12L12.625 28.9603L12.1037 28.9728L12 12Z" fill="#407DFF"/>
<path fill-rule="evenodd" clip-rule="evenodd" d="M12 12L12.2084 28.9699H11.6871L12 12Z" fill="#3F7DFF"/>
<path fill-rule="evenodd" clip-rule="evenodd" d="M12 12L11.7917 28.9699L11.2714 28.9574L12 12Z" fill="#3E7CFF"/>
<path fill-rule="evenodd" clip-rule="evenodd" d="M12 12L11.3751 28.9603L10.8547 28.9344L12 12Z" fill="#3D7BFF"/>
<path fill-rule="evenodd" clip-rule="evenodd" d="M12 12L10.9594 28.9402L10.44 28.9018L12 12Z" fill="#3C7BFF"/>
<path fill-rule="evenodd" clip-rule="evenodd" d="M12 12L10.5437 28.9094L10.0253 28.8586L12 12Z" fill="#3B7AFF"/>
<path fill-rule="evenodd" clip-rule="evenodd" d="M12 12L10.129 28.8682L9.61249 28.8048L12 12Z" fill="#3A79FF"/>
<path fill-rule="evenodd" clip-rule="evenodd" d="M12 12L9.7162 28.8173L9.20068 28.7405L12 12Z" fill="#3979FF"/>
<path fill-rule="evenodd" clip-rule="evenodd" d="M12.0001 12L9.30341 28.7558L8.79077 28.6675L12.0001 12Z" fill="#3878FF"/>
<path fill-rule="evenodd" clip-rule="evenodd" d="M12 12L8.89347 28.6848L8.38275 28.583L12 12Z" fill="#3777FF"/>
<path fill-rule="evenodd" clip-rule="evenodd" d="M12 12L8.48548 28.6032L7.97668 28.4899L12 12Z" fill="#3677FF"/>
<path fill-rule="evenodd" clip-rule="evenodd" d="M12 12L8.07845 28.513L7.57349 28.3862L12 12Z" fill="#3576FF"/>
<path fill-rule="evenodd" clip-rule="evenodd" d="M12 12L7.67426 28.4112L7.17218 28.273L12 12Z" fill="#3475FF"/>
<path fill-rule="evenodd" clip-rule="evenodd" d="M12 12L7.27296 28.2998L6.77472 28.1491L12 12Z" fill="#3375FF"/>
<path fill-rule="evenodd" clip-rule="evenodd" d="M12 12L6.87459 28.1789L6.38019 28.0157L12 12Z" fill="#3274FF"/>
<path fill-rule="evenodd" clip-rule="evenodd" d="M12 12L6.47909 28.0483L5.98853 27.8736L12 12Z" fill="#3173FF"/>
<path fill-rule="evenodd" clip-rule="evenodd" d="M12 12L6.08641 27.9082L5.60065 27.721L12 12Z" fill="#3073FF"/>
<path fill-rule="evenodd" clip-rule="evenodd" d="M12 12L5.69763 27.7584L5.21667 27.5587L12 12Z" fill="#2F72FF"/>
<path fill-rule="evenodd" clip-rule="evenodd" d="M12 12L5.31266 27.599L4.83746 27.3878L12 12Z" fill="#2E71FF"/>
<path fill-rule="evenodd" clip-rule="evenodd" d="M12 12L4.9325 27.4301L4.4621 27.2074L12 12Z" fill="#2D71FF"/>
<path fill-rule="evenodd" clip-rule="evenodd" d="M12 12L4.55618 27.2525L4.09058 27.0182L12 12Z" fill="#2C70FF"/>
<path fill-rule="evenodd" clip-rule="evenodd" d="M12 12L4.18367 27.0643L3.72479 26.8195L12 12Z" fill="#2B6FFF"/>
<path fill-rule="evenodd" clip-rule="evenodd" d="M12 12L3.817 26.8685L3.36292 26.6122L12 12Z" fill="#2A6EFF"/>
<path fill-rule="evenodd" clip-rule="evenodd" d="M12 12L3.45409 26.663L3.00769 26.3952L12 12Z" fill="#296EFF"/>
<path fill-rule="evenodd" clip-rule="evenodd" d="M12.0001 12L3.09701 26.449L2.65637 26.1706L12.0001 12Z" fill="#286DFF"/>
<path fill-rule="evenodd" clip-rule="evenodd" d="M12 12L2.74467 26.2262L2.31171 25.9363L12 12Z" fill="#276CFF"/>
<path fill-rule="evenodd" clip-rule="evenodd" d="M12 12L2.39812 25.9949L1.97284 25.6954L12 12Z" fill="#266CFF"/>
<path fill-rule="evenodd" clip-rule="evenodd" d="M12 12L2.05827 25.7549L1.63971 25.4448L12 12Z" fill="#256BFF"/>
<path fill-rule="evenodd" clip-rule="evenodd" d="M12 12L1.7232 25.5072L1.31232 25.1866L12 12Z" fill="#246AFF"/>
<path fill-rule="evenodd" clip-rule="evenodd" d="M12 12L1.39492 25.2509L0.992676 24.9206L12 12Z" fill="#236AFF"/>
<path fill-rule="evenodd" clip-rule="evenodd" d="M12.0001 12L1.07333 24.9859L0.678772 24.6461L12.0001 12Z" fill="#2269FF"/>
<path fill-rule="evenodd" clip-rule="evenodd" d="M12 12L0.757441 24.7142L0.371521 24.3648L12 12Z" fill="#2168FF"/>
<path fill-rule="evenodd" clip-rule="evenodd" d="M12 12L0.449301 24.4349L0.0720215 24.0758L12 12Z" fill="#2068FF"/>
<path fill-rule="evenodd" clip-rule="evenodd" d="M12 12L0.147876 24.1469L-0.220764 23.7792L12 12Z" fill="#1F67FF"/>
<path fill-rule="evenodd" clip-rule="evenodd" d="M12 12L-0.14784 23.8522L-0.50592 23.4758L12 12Z" fill="#1E66FF"/>
<path fill-rule="evenodd" clip-rule="evenodd" d="M12 12L-0.434862 23.5507L-0.784302 23.1648L12 12Z" fill="#1D66FF"/>
<path fill-rule="evenodd" clip-rule="evenodd" d="M12 12L-0.714237 23.2426L-1.05408 22.848L12 12Z" fill="#1C65FF"/>
<path fill-rule="evenodd" clip-rule="evenodd" d="M12 12L-0.985922 22.9267L-1.31616 22.5245L12 12Z" fill="#1B64FF"/>
<path fill-rule="evenodd" clip-rule="evenodd" d="M12 12L-1.25088 22.6051L-1.57056 22.1942L12 12Z" fill="#1A64FF"/>
<path fill-rule="evenodd" clip-rule="evenodd" d="M12 12L-1.50718 22.2768L-1.81726 21.8582L12 12Z" fill="#1963FF"/>
<path fill-rule="evenodd" clip-rule="evenodd" d="M12 12L-1.75486 21.9418L-2.05438 21.5165L12 12Z" fill="#1862FF"/>
<path fill-rule="evenodd" clip-rule="evenodd" d="M12 12L-1.99485 21.6019L-2.28381 21.168L12 12Z" fill="#1762FF"/>
<path fill-rule="evenodd" clip-rule="evenodd" d="M12 12L-2.22624 21.2554L-2.50464 20.8147L12 12Z" fill="#1661FF"/>
<path fill-rule="evenodd" clip-rule="evenodd" d="M12 12L-2.44896 20.903L-2.7168 20.4566L12 12Z" fill="#1560FF"/>
<path fill-rule="evenodd" clip-rule="evenodd" d="M12 12L-2.66299 20.5459L-2.91931 20.0928L12 12Z" fill="#1460FF"/>
<path fill-rule="evenodd" clip-rule="evenodd" d="M12 12L-2.86844 20.183L-3.1142 19.7242L12 12Z" fill="#135FFF"/>
<path fill-rule="evenodd" clip-rule="evenodd" d="M12 12L-3.06524 19.8163L-3.29852 19.3507L12 12Z" fill="#125EFF"/>
<path fill-rule="evenodd" clip-rule="evenodd" d="M12 12L-3.25248 19.4438L-3.47424 18.9734L12 12Z" fill="#115EFF"/>
<path fill-rule="evenodd" clip-rule="evenodd" d="M12 12L-3.43004 19.0675L-3.64124 18.5914L12 12Z" fill="#105DFF"/>
<path fill-rule="evenodd" clip-rule="evenodd" d="M12 12L-3.59903 18.6864L-3.79871 18.2054L12 12Z" fill="#0F5CFF"/>
<path fill-rule="evenodd" clip-rule="evenodd" d="M12 12L-3.75836 18.3014L-3.94556 17.8157L12 12Z" fill="#0E5BFF"/>
<path fill-rule="evenodd" clip-rule="evenodd" d="M12 12L-3.90812 17.9136L-4.0838 17.423L12 12Z" fill="#0D5BFF"/>
<path fill-rule="evenodd" clip-rule="evenodd" d="M12 12L-4.04925 17.521L-4.21149 17.0266L12 12Z" fill="#0C5AFF"/>
<path fill-rule="evenodd" clip-rule="evenodd" d="M12 12L-4.17985 17.1254L-4.33057 16.6272L12 12Z" fill="#0B59FF"/>
<path fill-rule="evenodd" clip-rule="evenodd" d="M12 12L-4.30079 16.727L-4.43903 16.225L12 12Z" fill="#0A59FF"/>
<path fill-rule="evenodd" clip-rule="evenodd" d="M12 12L-4.41118 16.3258L-4.5379 15.8198L12 12Z" fill="#0958FF"/>
<path fill-rule="evenodd" clip-rule="evenodd" d="M12 12L-4.51294 15.9216L-4.62622 15.4138L12 12Z" fill="#0857FF"/>
<path fill-rule="evenodd" clip-rule="evenodd" d="M12 12L-4.60416 15.5146L-4.70496 15.0038L12 12Z" fill="#0757FF"/>
<path fill-rule="evenodd" clip-rule="evenodd" d="M12 12L-4.68477 15.1066L-4.77405 14.5939L12 12Z" fill="#0656FF"/>
<path fill-rule="evenodd" clip-rule="evenodd" d="M12 12L-4.75584 14.6957L-4.83264 14.1811L12 12Z" fill="#0555FF"/>
<path fill-rule="evenodd" clip-rule="evenodd" d="M12 12L-4.81726 14.2838L-4.88062 13.7674L12 12Z" fill="#0455FF"/>
<path fill-rule="evenodd" clip-rule="evenodd" d="M12 12L-4.86813 13.8701L-4.91901 13.3526L12 12Z" fill="#0354FF"/>
<path fill-rule="evenodd" clip-rule="evenodd" d="M12 12L-4.90941 13.4563L-4.94781 12.937L12 12Z" fill="#0253FF"/>
<path fill-rule="evenodd" clip-rule="evenodd" d="M12 12L-4.94013 13.0406L-4.96509 12.5203L12 12Z" fill="#0153FF"/>
<path fill-rule="evenodd" clip-rule="evenodd" d="M12 12L-4.9603 12.625L-4.97278 12.1037L12 12Z" fill="#0052FF"/>
<path fill-rule="evenodd" clip-rule="evenodd" d="M12 12L-4.97089 12.2083V11.7917L12 12Z" fill="white"/>
</g>
</g>
<defs>
<clipPath id="clip0_1_1755">
<rect width="24" height="24" fill="white"/>
</clipPath>
</defs>
</svg>
