<svg width="24" height="24" viewBox="0 0 24 24" fill="none" xmlns="http://www.w3.org/2000/svg">
<path d="M11.9929 0C18.6221 0 23.9953 5.37321 23.9953 12.0024C23.9953 18.6315 18.6221 24 11.9976 24C5.36849 24 3.10941e-06 18.6268 3.10941e-06 12.0024C-0.00471851 5.37321 5.36848 0 11.9929 0Z" fill="#8247E5"/>
<path d="M15.926 9.38658C15.638 9.22133 15.2697 9.22133 14.9439 9.38658L12.6492 10.7464L11.0911 11.6105L8.83888 12.9656C8.55086 13.1308 8.18257 13.1308 7.85678 12.9656L6.09561 11.8938C5.8076 11.7285 5.60457 11.398 5.60457 11.0297V8.97108C5.60457 8.64057 5.76982 8.31478 6.09561 8.10702L7.85678 7.07771C8.1448 6.91245 8.51308 6.91245 8.83888 7.07771L10.6 8.14952C10.8881 8.31477 11.0911 8.64529 11.0911 9.01357V10.3734L12.6492 9.46685V8.06925C12.6492 7.73874 12.484 7.41295 12.1582 7.20519L8.88137 5.26933C8.59335 5.10407 8.22507 5.10407 7.89927 5.26933L4.5422 7.24769C4.21641 7.41295 4.05115 7.74346 4.05115 8.06925V11.9363C4.05115 12.2668 4.21641 12.5926 4.5422 12.8003L7.8615 14.7362C8.14952 14.9014 8.51781 14.9014 8.8436 14.7362L11.0958 13.4188L12.6539 12.5123L14.9062 11.195C15.1942 11.0297 15.5625 11.0297 15.8883 11.195L17.6494 12.2243C17.9374 12.3895 18.1405 12.72 18.1405 13.0883V15.147C18.1405 15.4775 17.9752 15.8033 17.6494 16.011L15.9308 17.0403C15.6427 17.2056 15.2744 17.2056 14.9487 17.0403L13.1828 16.011C12.8947 15.8458 12.6917 15.5152 12.6917 15.147V13.8296L11.1336 14.7362V16.096C11.1336 16.4265 11.2988 16.7523 11.6246 16.9601L14.9439 18.8959C15.232 19.0612 15.6002 19.0612 15.926 18.8959L19.2453 16.9601C19.5333 16.7948 19.7364 16.4643 19.7364 16.096V12.1865C19.7364 11.856 19.5711 11.5302 19.2453 11.3224L15.926 9.38658Z" fill="white"/>
</svg>
