<svg width="24" height="24" viewBox="0 0 24 24" fill="none" xmlns="http://www.w3.org/2000/svg">
<circle cx="12" cy="12" r="12" fill="#FFEEDA"/>
<path d="M17.929 15.2562V6.34568C17.9171 5.6001 17.3372 5 16.6095 5H7.53253C5.57396 5.03031 4 6.673 4 8.68546C4 9.36436 4.17751 9.94627 4.4497 10.4554C4.68047 10.8798 5.04142 11.2798 5.39644 11.5769C5.49704 11.6617 5.4497 11.6253 5.75739 11.8193C6.18343 12.086 6.66863 12.2194 6.66863 12.2194L6.66271 17.5475C6.67455 17.8021 6.69822 18.0446 6.76331 18.2689C6.96449 19.0205 7.47336 19.5963 8.16567 19.8752C8.45561 19.9903 8.78105 20.0691 9.13017 20.0752L16.3787 20.0994C17.8224 20.0994 18.994 18.8993 18.994 17.4141C18.9999 16.5352 18.574 15.7472 17.929 15.2562Z" fill="#FFEEDA"/>
<path d="M18.1064 17.4809C18.0768 18.4325 17.3135 19.1963 16.3786 19.1963L11.3904 19.1781C11.7869 18.7053 12.0294 18.093 12.0294 17.4263C12.0294 16.3777 11.42 15.6563 11.42 15.6563H16.3845C17.3371 15.6563 18.1123 16.4503 18.1123 17.4263L18.1064 17.4809Z" fill="#EBC28E"/>
<path d="M5.86982 10.8252C5.29585 10.2676 4.89349 9.54624 4.89349 8.69156V8.60063C4.94083 7.13978 6.11242 5.96383 7.53845 5.9214H16.6154C16.8521 5.93353 17.0414 6.10326 17.0414 6.35178V14.2197C17.2485 14.2561 17.349 14.2864 17.5503 14.3592C17.7101 14.4198 17.929 14.5471 17.929 14.5471V6.35178C17.9171 5.6062 17.3372 5.0061 16.6095 5.0061H7.53253C5.57396 5.03641 4 6.6791 4 8.69156C4 9.86145 4.52071 10.8616 5.37278 11.5647C5.43195 11.6133 5.4852 11.6739 5.63905 11.6739C5.90532 11.6739 6.09467 11.4556 6.08284 11.2192C6.07692 11.0192 5.99408 10.9465 5.86982 10.8252Z" fill="#101010"/>
<path d="M16.3787 14.7349H9.26036C8.78107 14.741 8.39646 15.135 8.39646 15.626V16.6746C8.40829 17.1596 8.81066 17.5718 9.28995 17.5718H9.81657V16.6746H9.28995V15.6503C9.28995 15.6503 9.42013 15.6503 9.57989 15.6503C10.4793 15.6503 11.142 16.5049 11.142 17.4202C11.142 18.2325 10.4201 19.269 9.21302 19.1842C8.14202 19.1114 7.56214 18.1355 7.56214 17.4202V8.53391C7.56214 8.13385 7.24262 7.80652 6.85209 7.80652H6.14203V8.71576H6.66866V17.4263C6.63907 19.1963 7.89942 20.0874 9.21302 20.0874L16.3846 20.1116C17.8284 20.1116 19 18.9114 19 17.4263C19 15.9412 17.8225 14.7349 16.3787 14.7349ZM18.1065 17.4808C18.0769 18.4325 17.3136 19.1963 16.3787 19.1963L11.3905 19.1781C11.787 18.7053 12.0296 18.093 12.0296 17.4263C12.0296 16.3776 11.4201 15.6563 11.4201 15.6563H16.3846C17.3372 15.6563 18.1124 16.4504 18.1124 17.4263L18.1065 17.4808Z" fill="#101010"/>
<path d="M14.4614 8.87958H9.09454V7.97034H14.4614C14.704 7.97034 14.9052 8.17037 14.9052 8.42496C14.9052 8.67348 14.7099 8.87958 14.4614 8.87958Z" fill="#101010"/>
<path d="M14.4614 13.1589H9.09454V12.2496H14.4614C14.704 12.2496 14.9052 12.4497 14.9052 12.7043C14.9052 12.9527 14.7099 13.1589 14.4614 13.1589Z" fill="#101010"/>
<path d="M15.4082 11.0192H9.09454V10.11H15.4022C15.6449 10.11 15.846 10.31 15.846 10.5646C15.8519 10.8131 15.6508 11.0192 15.4082 11.0192Z" fill="#101010"/>
</svg>
