<svg width="13" height="14" viewBox="0 0 13 14" fill="none" xmlns="http://www.w3.org/2000/svg">
<path d="M7.74951 6.06703L12.1739 0.924063L12.2957 0.78245H12.1089H11.0503H11.011L10.9853 0.812264L7.17898 5.23676L4.14392 0.819623L4.11838 0.78245H4.07328H0.5H0.337106L0.429355 0.916705L5.07689 7.68051L0.435023 13.076L0.313187 13.2176H0.5H1.55866H1.59799L1.62364 13.1878L5.6473 8.51062L8.85608 13.1804L8.88162 13.2176H8.92672H12.5H12.6629L12.5706 13.0833L7.74951 6.06703ZM9.46942 12.2855L6.27736 7.71971V7.71945L6.2619 7.69733L5.78722 7.01839L2.10462 1.75082H3.52149L6.54387 6.07413L6.61412 6.02501L6.54387 6.07413L7.01855 6.75307L10.8863 12.2855H9.46942Z" fill="white" stroke="white" stroke-width="0.171429"/>
</svg>
