<svg width="262" height="88" viewBox="0 0 262 88" fill="none" xmlns="http://www.w3.org/2000/svg">
<path fill-rule="evenodd" clip-rule="evenodd" d="M94.415 46.0661V38.4242H98.1398V46.37C98.1398 47.1611 98.3831 47.7953 98.8703 48.2736C99.3578 48.7517 99.9787 48.9911 100.733 48.9911C101.468 48.9911 102.075 48.747 102.554 48.2598C103.032 47.7725 103.271 47.1423 103.271 46.37V38.4242H106.995V46.0661C106.995 47.9423 106.402 49.4692 105.216 50.6459C104.029 51.8234 102.535 52.4117 100.733 52.4117C98.8934 52.4117 97.3812 51.8278 96.1948 50.6595C95.0081 49.4917 94.415 47.9609 94.415 46.0661Z" fill="#12141E"/>
<path fill-rule="evenodd" clip-rule="evenodd" d="M119.324 45.2664C119.324 44.1447 118.993 43.2344 118.331 42.5347C117.669 41.8366 116.823 41.4869 115.793 41.4869C114.8 41.4869 113.976 41.818 113.324 42.48C112.671 43.1422 112.344 44.0616 112.344 45.2389C112.344 46.4161 112.671 47.3403 113.324 48.0108C113.976 48.683 114.8 49.0183 115.793 49.0183C116.804 49.0183 117.646 48.6691 118.317 47.9697C118.989 47.2708 119.324 46.37 119.324 45.2664ZM121.214 40.1489C122.473 41.5005 123.104 43.1972 123.104 45.2389C123.104 47.2803 122.473 48.9861 121.214 50.3564C119.954 51.7264 118.377 52.4116 116.483 52.4116C114.772 52.4116 113.411 51.86 112.399 50.7564V57.0461H108.675V38.4241H112.096V40.1353C113.034 38.7925 114.496 38.1211 116.483 38.1211C118.377 38.1211 119.954 38.7966 121.214 40.1489Z" fill="#12141E"/>
<path fill-rule="evenodd" clip-rule="evenodd" d="M128.205 43.8867H134.413C134.394 43.0592 134.104 42.3925 133.543 41.8867C132.982 41.3811 132.288 41.1284 131.461 41.1284C130.67 41.1284 129.98 41.3764 129.391 41.8731C128.803 42.3692 128.407 43.0411 128.205 43.8867ZM137.778 46.5075H128.205C128.426 47.3725 128.871 48.0392 129.543 48.5078C130.214 48.9773 131.047 49.2117 132.04 49.2117C133.382 49.2117 134.651 48.7517 135.847 47.8317L137.392 50.3703C135.755 51.7314 133.934 52.4117 131.929 52.4117C129.833 52.4481 128.053 51.7631 126.591 50.3564C125.129 48.9489 124.416 47.2525 124.453 45.2664C124.416 43.2984 125.106 41.6064 126.522 40.1903C127.938 38.7739 129.63 38.0845 131.599 38.1211C133.475 38.1211 135.015 38.7278 136.219 39.942C137.424 41.1559 138.026 42.6639 138.026 44.4667C138.026 45.1281 137.943 45.8095 137.778 46.5075Z" fill="#12141E"/>
<path fill-rule="evenodd" clip-rule="evenodd" d="M148.036 38.4242V41.7075H147.043C145.902 41.7075 145.005 42.0111 144.353 42.618C143.699 43.2247 143.374 44.1078 143.374 45.2664V52.0805H139.649V38.4242H143.07V40.0519C144.026 38.8569 145.277 38.2592 146.822 38.2592C147.282 38.2592 147.687 38.3142 148.036 38.4242Z" fill="#12141E"/>
<path fill-rule="evenodd" clip-rule="evenodd" d="M158.597 52.0806H162.322V31.0583H158.597V52.0806ZM156.819 31.0583V34.3967H155.922C155.057 34.3967 154.427 34.5622 154.032 34.8933C153.637 35.2239 153.439 35.7667 153.439 36.5208V38.4242H156.819V41.5695H153.439V52.0806H149.714V36.19C149.714 34.4981 150.174 33.22 151.094 32.355C152.013 31.4911 153.31 31.0583 154.984 31.0583H156.819Z" fill="#12141E"/>
<path fill-rule="evenodd" clip-rule="evenodd" d="M164.136 46.0661V38.4242H167.861V46.37C167.861 47.1611 168.105 47.7953 168.592 48.2736C169.079 48.7517 169.7 48.9911 170.455 48.9911C171.19 48.9911 171.797 48.747 172.275 48.2598C172.753 47.7725 172.992 47.1423 172.992 46.37V38.4242H176.716V46.0661C176.716 47.9423 176.124 49.4692 174.937 50.6459C173.751 51.8234 172.256 52.4117 170.455 52.4117C168.615 52.4117 167.102 51.8278 165.916 50.6595C164.73 49.4917 164.136 47.9609 164.136 46.0661Z" fill="#12141E"/>
<path fill-rule="evenodd" clip-rule="evenodd" d="M178.531 52.0806H182.255V38.4242H178.531V52.0806Z" fill="#12141E"/>
<path fill-rule="evenodd" clip-rule="evenodd" d="M194.019 48.0247C194.67 47.3628 194.998 46.4436 194.998 45.2664C194.998 44.0892 194.667 43.165 194.005 42.4936C193.342 41.8222 192.524 41.487 191.549 41.487C190.537 41.487 189.696 41.8367 189.025 42.5347C188.353 43.2345 188.018 44.1353 188.018 45.2389C188.018 46.3611 188.349 47.2708 189.011 47.9697C189.673 48.6692 190.519 49.0183 191.549 49.0183C192.542 49.0183 193.365 48.6872 194.019 48.0247ZM194.943 31.0583H198.667V52.0806H195.246V50.3975C194.308 51.7403 192.845 52.4117 190.86 52.4117C188.946 52.4117 187.365 51.7356 186.115 50.3839C184.863 49.0322 184.239 47.3264 184.239 45.2664C184.239 43.2067 184.863 41.5006 186.115 40.1489C187.365 38.7967 188.946 38.1211 190.86 38.1211C192.588 38.1211 193.949 38.6639 194.943 39.7489V31.0583Z" fill="#12141E"/>
<path fill-rule="evenodd" clip-rule="evenodd" d="M88.5891 41.6245L86.5199 40.7145C85.7104 40.347 85.1543 40.0203 84.851 39.7345C84.5477 39.45 84.3957 39.0775 84.3957 38.6178C84.3957 38.5495 84.4088 38.4889 84.4154 38.4242H80.6293C80.6252 38.5164 80.6163 38.6061 80.6163 38.7003C80.6163 40.8892 82.0874 42.6364 85.0304 43.9422L86.9888 44.8247C87.9085 45.2484 88.5243 45.6022 88.8374 45.887C89.1502 46.172 89.3066 46.5728 89.3066 47.0867C89.3066 47.7128 89.0763 48.2042 88.6168 48.5631C88.1568 48.9217 87.5221 49.1009 86.7132 49.1009C85.0207 49.1009 83.531 48.2178 82.2438 46.4525L79.6782 48.3834C80.3954 49.6347 81.3654 50.6181 82.5888 51.3356C83.8116 52.0531 85.1866 52.4117 86.7132 52.4117C88.5704 52.4117 90.0971 51.9106 91.2927 50.9081C92.4879 49.9056 93.086 48.5861 93.086 46.9492C93.086 45.735 92.7271 44.7195 92.0102 43.9009C91.2927 43.0825 90.1521 42.3239 88.5891 41.6245Z" fill="#12141E"/>
<path fill-rule="evenodd" clip-rule="evenodd" d="M93.0861 33.0056H87.6675V35.715H90.3769V38.4242H93.0861V33.0056Z" fill="#12141E"/>
<path fill-rule="evenodd" clip-rule="evenodd" d="M182.256 38.4242H186.361V34.3184H182.256V38.4242Z" fill="#12141E"/>
<path fill-rule="evenodd" clip-rule="evenodd" d="M62.6978 47.5061H55.4586V40.267H48.2192V33.0275H62.6978V47.5061ZM40.98 54.7453H48.2192V47.5061H40.98V54.7453ZM32 28.3842V59.3892C32 61.7839 33.9414 63.7256 36.3364 63.7256H67.3414C69.7364 63.7256 71.6778 61.7839 71.6778 59.3892V28.3842C71.6778 25.9892 69.7364 24.0478 67.3414 24.0478H36.3364C33.9414 24.0478 32 25.9892 32 28.3842Z" fill="#12141E"/>
</svg>
